<?xml version="1.0" encoding="UTF-8" standalone="no"?>
<!DOCTYPE svg PUBLIC "-//W3C//DTD SVG 1.1//EN"
 "http://www.w3.org/Graphics/SVG/1.1/DTD/svg11.dtd">
<!-- Generated by graphviz version 5.0.0 (20220707.1540)
 -->
<!-- Title: dependencies Pages: 1 -->
<svg width="559pt" height="250pt"
 viewBox="0.00 0.00 559.00 249.80" xmlns="http://www.w3.org/2000/svg" xmlns:xlink="http://www.w3.org/1999/xlink">
<g id="graph0" class="graph" transform="scale(1 1) rotate(0) translate(4 245.8)">
<title>dependencies</title>
<polygon fill="white" stroke="transparent" points="-4,4 -4,-245.8 555,-245.8 555,4 -4,4"/>
<text text-anchor="middle" x="275.5" y="-8.2" font-family="sans-serif" font-size="14.00">dependencies</text>
<g id="clust1" class="cluster">
<title>cluster_AppModule</title>
<polygon fill="none" stroke="black" stroke-dasharray="1,5" points="8,-108.8 8,-233.8 528,-233.8 528,-108.8 8,-108.8"/>
</g>
<g id="clust3" class="cluster">
<title>cluster_AppModule_imports</title>
<polygon fill="none" stroke="black" points="154,-116.8 154,-168.8 520,-168.8 520,-116.8 154,-116.8"/>
</g>
<g id="clust6" class="cluster">
<title>cluster_AppModule_providers</title>
<polygon fill="none" stroke="black" points="16,-116.8 16,-168.8 146,-168.8 146,-116.8 16,-116.8"/>
</g>
<g id="clust7" class="cluster">
<title>cluster_CategoriesModule</title>
<polygon fill="none" stroke="black" stroke-dasharray="1,5" points="117,-32.8 117,-100.8 327,-100.8 327,-32.8 117,-32.8"/>
</g>
<g id="clust12" class="cluster">
<title>cluster_CategoriesModule_providers</title>
<polygon fill="none" stroke="black" points="125,-40.8 125,-92.8 319,-92.8 319,-40.8 125,-40.8"/>
</g>
<g id="clust19" class="cluster">
<title>cluster_UserModule</title>
<polygon fill="none" stroke="black" stroke-dasharray="1,5" points="395,-32.8 395,-100.8 543,-100.8 543,-32.8 395,-32.8"/>
</g>
<g id="clust24" class="cluster">
<title>cluster_UserModule_providers</title>
<polygon fill="none" stroke="black" points="403,-40.8 403,-92.8 535,-92.8 535,-40.8 403,-40.8"/>
</g>
<!-- CategoriesModule -->
<g id="node1" class="node">
<title>CategoriesModule</title>
<polygon fill="#8dd3c7" stroke="black" points="281.92,-160.8 278.92,-164.8 257.92,-164.8 254.92,-160.8 162.08,-160.8 162.08,-124.8 281.92,-124.8 281.92,-160.8"/>
<text text-anchor="middle" x="222" y="-138.6" font-family="Times,serif" font-size="14.00">CategoriesModule</text>
</g>
<!-- AppModule -->
<g id="node4" class="node">
<title>AppModule</title>
<polygon fill="#8dd3c7" stroke="black" points="329.66,-225.8 326.66,-229.8 305.66,-229.8 302.66,-225.8 246.34,-225.8 246.34,-189.8 329.66,-189.8 329.66,-225.8"/>
<text text-anchor="middle" x="288" y="-203.6" font-family="Times,serif" font-size="14.00">AppModule</text>
</g>
<!-- CategoriesModule&#45;&gt;AppModule -->
<g id="edge1" class="edge">
<title>CategoriesModule&#45;&gt;AppModule</title>
<path fill="none" stroke="black" d="M263.94,-160.91C263.94,-160.91 263.94,-179.79 263.94,-179.79"/>
<polygon fill="black" stroke="black" points="260.44,-179.79 263.94,-189.79 267.44,-179.79 260.44,-179.79"/>
</g>
<!-- ProductsModule -->
<g id="node2" class="node">
<title>ProductsModule</title>
<polygon fill="#8dd3c7" stroke="black" points="408.05,-160.8 405.05,-164.8 384.05,-164.8 381.05,-160.8 299.95,-160.8 299.95,-124.8 408.05,-124.8 408.05,-160.8"/>
<text text-anchor="middle" x="354" y="-138.6" font-family="Times,serif" font-size="14.00">ProductsModule</text>
</g>
<!-- ProductsModule&#45;&gt;AppModule -->
<g id="edge2" class="edge">
<title>ProductsModule&#45;&gt;AppModule</title>
<path fill="none" stroke="black" d="M314.78,-160.91C314.78,-160.91 314.78,-179.79 314.78,-179.79"/>
<polygon fill="black" stroke="black" points="311.28,-179.79 314.78,-189.79 318.28,-179.79 311.28,-179.79"/>
</g>
<!-- UserModule -->
<g id="node3" class="node">
<title>UserModule</title>
<polygon fill="#8dd3c7" stroke="black" points="511.99,-160.8 508.99,-164.8 487.99,-164.8 484.99,-160.8 426.01,-160.8 426.01,-124.8 511.99,-124.8 511.99,-160.8"/>
<text text-anchor="middle" x="469" y="-138.6" font-family="Times,serif" font-size="14.00">UserModule</text>
</g>
<!-- UserModule&#45;&gt;AppModule -->
<g id="edge3" class="edge">
<title>UserModule&#45;&gt;AppModule</title>
<path fill="none" stroke="black" d="M469,-160.91C469,-180.14 469,-207.8 469,-207.8 469,-207.8 339.98,-207.8 339.98,-207.8"/>
<polygon fill="black" stroke="black" points="339.98,-204.3 329.98,-207.8 339.98,-211.3 339.98,-204.3"/>
</g>
<!-- AppService -->
<g id="node5" class="node">
<title>AppService</title>
<ellipse fill="#fdb462" stroke="black" cx="81" cy="-142.8" rx="56.75" ry="18"/>
<text text-anchor="middle" x="81" y="-138.6" font-family="Times,serif" font-size="14.00">AppService</text>
</g>
<!-- AppService&#45;&gt;AppModule -->
<g id="edge4" class="edge">
<title>AppService&#45;&gt;AppModule</title>
<path fill="none" stroke="black" d="M81,-160.91C81,-180.14 81,-207.8 81,-207.8 81,-207.8 236.11,-207.8 236.11,-207.8"/>
<polygon fill="black" stroke="black" points="236.11,-211.3 246.11,-207.8 236.11,-204.3 236.11,-211.3"/>
</g>
<!-- CategoryRepository -->
<g id="node6" class="node">
<title>CategoryRepository</title>
<ellipse fill="#fdb462" stroke="black" cx="222" cy="-66.8" rx="88.63" ry="18"/>
<text text-anchor="middle" x="222" y="-62.6" font-family="Times,serif" font-size="14.00">CategoryRepository</text>
</g>
<!-- CategoryRepository&#45;&gt;CategoriesModule -->
<g id="edge5" class="edge">
<title>CategoryRepository&#45;&gt;CategoriesModule</title>
<path fill="none" stroke="black" d="M222,-84.81C222,-84.81 222,-114.65 222,-114.65"/>
<polygon fill="black" stroke="black" points="218.5,-114.65 222,-124.65 225.5,-114.65 218.5,-114.65"/>
</g>
<!-- UserService -->
<g id="node7" class="node">
<title>UserService</title>
<ellipse fill="#fdb462" stroke="black" cx="469" cy="-66.8" rx="58.46" ry="18"/>
<text text-anchor="middle" x="469" y="-62.6" font-family="Times,serif" font-size="14.00">UserService</text>
</g>
<!-- UserService&#45;&gt;UserModule -->
<g id="edge6" class="edge">
<title>UserService&#45;&gt;UserModule</title>
<path fill="none" stroke="black" d="M469,-84.81C469,-84.81 469,-114.65 469,-114.65"/>
<polygon fill="black" stroke="black" points="465.5,-114.65 469,-124.65 472.5,-114.65 465.5,-114.65"/>
</g>
</g>
</svg>
